<?xml version="1.0" standalone="no"?>
<!DOCTYPE svg PUBLIC "-//W3C//DTD SVG 20010904//EN"
 "http://www.w3.org/TR/2001/REC-SVG-20010904/DTD/svg10.dtd">
<svg version="1.0" xmlns="http://www.w3.org/2000/svg"
 width="272.000000pt" height="272.000000pt" viewBox="0 0 272.000000 272.000000"
 preserveAspectRatio="xMidYMid meet">
<metadata>
Created by potrace 1.11, written by Peter Selinger 2001-2013
</metadata>
<g transform="translate(0.000000,272.000000) scale(0.100000,-0.100000)"
fill="#000000" stroke="none">
<path d="M727 1912 l-47 -48 100 -99 100 -99 -59 -12 c-237 -49 -403 -284
-362 -513 36 -203 193 -355 391 -381 41 -5 271 -10 510 -10 l436 0 69 -70 c38
-38 74 -70 80 -70 6 0 31 20 55 45 l45 45 -630 630 c-347 347 -632 630 -635
630 -3 0 -27 -21 -53 -48z m608 -702 l300 -300 -392 0 c-367 0 -396 1 -446 20
-67 25 -132 88 -164 158 -22 47 -25 64 -21 136 5 90 19 125 75 187 65 72 130
97 258 98 l90 1 300 -300z"/>
<path d="M1200 1941 c-30 -10 -75 -28 -99 -40 l-44 -23 55 -55 55 -54 64 21
c137 47 298 12 411 -89 70 -62 122 -172 126 -267 l4 -72 92 -4 c77 -3 99 -8
137 -30 67 -40 102 -96 107 -173 5 -82 -11 -128 -63 -181 l-43 -42 54 -53 54
-53 45 44 c212 208 105 565 -189 631 -51 11 -53 13 -65 56 -47 177 -204 332
-390 387 -75 22 -238 21 -311 -3z"/>
</g>
</svg>
